<?xml version="1.0" encoding="iso-8859-1"?>
<!-- Generator: Adobe Illustrator 16.0.0, SVG Export Plug-In . SVG Version: 6.00 Build 0)  -->
<!DOCTYPE svg PUBLIC "-//W3C//DTD SVG 1.1//EN" "http://www.w3.org/Graphics/SVG/1.1/DTD/svg11.dtd">
<svg version="1.1" id="&#x5716;&#x5C64;_1" xmlns="http://www.w3.org/2000/svg" xmlns:xlink="http://www.w3.org/1999/xlink" x="0px"
	 y="0px" width="303.053px" height="132.061px" viewBox="0 0 303.053 132.061" style="enable-background:new 0 0 303.053 132.061;"
	 xml:space="preserve">
<path style="fill:#660D0D;" d="M73.028,115.977c-4.388,0.185-8.737-0.083-13.139-0.703c0.372-0.119,0.717-0.274,0.93-0.394
	c0.822-0.462,1.28-1.247,1.396-2.273c0.012-0.101-0.078-0.215-0.162-0.129c-0.734,0.752-1.557,1.034-2.423,1.227
	c0.249-0.543,0.415-1.128,0.486-1.604c0.278-1.846,0.125-3.569-0.247-5.193c-0.094-0.413-0.608-0.117-0.553,0.295
	c0.202,1.496-0.04,3.428-0.717,4.926c-0.366,0.811-1.197,1.73-1.32,2.669c-0.42-0.09-0.843-0.182-1.263-0.279
	c1.554-3.593,1.392-8.023-0.197-11.588c1.336-1.591,1-4.483-0.993-3.819c-1.813,0.604-3.245,5.357-0.261,4.662
	c0.182-0.041,0.36-0.133,0.523-0.227c1.394,3.195,1.575,7.151,0.23,10.382c-0.01-0.011-0.017-0.022-0.026-0.034
	c-0.463-2.188-0.986-4.252-2.057-6.241c0.918-1.313,0.475-3.562-1.113-3.069c-1.637,0.508-2.438,4.316-0.005,3.886
	c0.138-0.024,0.279-0.096,0.405-0.163c0.926,1.724,1.66,3.854,1.905,5.794c-5.692-1.684-10.802-4.003-15.699-7.289
	c-0.127-0.086-0.247-0.182-0.369-0.273c0.237,0.013,0.458,0.015,0.6,0.026c1.123,0.104,1.94-0.095,2.954-0.688
	c0.13-0.076,0.059-0.27-0.062-0.277c-0.793-0.046-1.629,0.082-2.403-0.131c-0.065-0.018-0.139-0.038-0.206-0.056
	c1.701-0.76,3.203-2.799,3.774-4.494c0.142-0.422-0.336-0.899-0.639-0.446c-1.28,1.928-3.07,3.969-5.521,4.275
	c2.146-2.319,3.708-5.543,3.432-8.75c1.705-1.166,1.882-4.285-0.316-4.206c-2.231,0.078-4.063,4.46-1.037,4.63
	c0.169,0.01,0.349-0.021,0.51-0.054c0.227,2.862-1.236,5.569-3.142,7.601c-0.025-1.926-0.261-3.916-0.581-5.807
	c-0.132-0.783-0.236-1.65-0.495-2.414c0.638-1.102,0.4-2.711-1.006-2.762c-2.005-0.071-3.24,3.473-0.849,3.82
	c0.412,0.06,0.834-0.087,1.154-0.297c0.283,1.002,0.34,2.211,0.481,3.123c0.231,1.503,0.381,3.018,0.385,4.592
	c-3.678-3.227-6.82-6.732-9.695-10.686c1.21,0.604,3.079,0.537,3.806-0.024c0.082-0.063,0.116-0.189,0.036-0.269
	c-0.611-0.608-1.552-0.586-2.328-0.822c-0.059-0.018-0.121-0.047-0.179-0.066c0.936-0.275,1.762-0.787,2.496-1.439
	c0.194-0.148,0.372-0.324,0.536-0.523c0.046-0.051,0.101-0.092,0.147-0.144c-0.005-0.005-0.011-0.008-0.017-0.011
	c0.032-0.046,0.075-0.076,0.106-0.124c0.407-0.616-0.479-1.198-0.952-0.702c-0.211,0.224-0.438,0.435-0.674,0.633
	c-0.653,0.348-1.559,0.375-2.188,0.477c-0.327,0.054-0.659,0.078-0.993,0.093c1.88-2.042,2.672-4.888,2.804-7.604
	c1.835-0.593,3.121-3.761,0.72-4.365c-2.343-0.59-4.766,3.424-1.87,4.354c0.088,0.027,0.18,0.029,0.271,0.043
	c0.003,2.426-0.744,4.882-2.49,6.618c-0.171,0.168-0.35,0.317-0.529,0.46c0.508-3.619,0.308-7.396-0.33-10.98
	c1.2-0.764,1.587-2.787-0.005-3.301c-2.058-0.665-3.873,2.549-1.637,3.491c0.235,0.101,0.506,0.118,0.74,0.106
	c0.604,3.484,0.826,7.18,0.291,10.691c-3.077-5.42-5.39-10.964-6.903-16.939c-0.047-0.181-0.087-0.373-0.127-0.559
	c0.131,0.145,0.268,0.273,0.391,0.375c0.794,0.655,1.658,1.172,2.65,1.309c0.105,0.014,0.168-0.117,0.104-0.201
	c-0.503-0.659-1.372-0.832-1.992-1.384c-0.192-0.171-0.337-0.35-0.467-0.537c1.329,0.868,2.872,0.927,4.37,0.894
	c0.622-0.014,0.674-0.961,0.041-0.994c-1.395-0.078-2.804-0.396-3.922-1.375c-0.313-0.275-0.595-0.572-0.909-0.801
	c3.354-0.629,5.673-4.043,6.575-7.072c1.736,0.065,3.078-2.221,1.33-3.173c-1.834-0.998-4.4,1.395-2.256,2.908
	c-0.829,2.667-2.874,5.872-5.879,6.409c1.543-2.14,2.541-4.676,2.989-7.27c1.639-0.07,2.84-2.306,1.167-3.311
	c-1.914-1.148-4.326,1.598-2.282,3.005c0.056,0.039,0.121,0.061,0.186,0.091c-0.436,2.487-1.389,4.946-2.907,6.979
	c-0.874-6.101-0.975-11.967-0.284-18.09c0.078,0.163,0.163,0.324,0.242,0.479c0.214,0.419,0.455,0.853,0.645,1.276
	c0.095,0.21,0.133,0.403,0.332,0.527c0.255,0.157,0.418-0.335,0.436-0.491c0.065-0.563-0.037-0.965-0.229-1.486
	c0.26,0.313,0.524,0.62,0.8,0.917c0.224,0.319,0.475,0.593,0.752,0.813c0.006,0.006,0.009,0.009,0.015,0.015
	c0-0.001,0-0.001,0-0.001c0.028,0.022,0.055,0.051,0.083,0.073c0.394,0.293,0.84-0.282,0.518-0.637
	c-0.237-0.264-0.483-0.528-0.732-0.8c-0.403-0.611-0.699-1.388-0.937-1.962c-0.063-0.155-0.493-1.071-0.773-1.885
	c0.161,0.094,0.312,0.205,0.48,0.29c2.286,1.148,4.738,0.126,6.282-1.711c1.745,0.616,3.658-1.263,2.053-2.729
	c-1.77-1.616-4.517,0.549-2.865,2.201c-1.192,1.643-3.969,2.136-5.597,0.865c1.648-0.719,3.154-2.444,4.051-3.957
	c1.292,0.523,2.774-0.9,1.608-2.081c-1.231-1.246-3.218,0.162-2.361,1.457c-0.962,1.478-2.132,3.032-3.718,3.659
	c-0.034-0.053-0.081-0.102-0.142-0.14c-0.004-0.003-0.005-0.006-0.009-0.01c1.035-4.029,2.354-7.857,4.162-11.561
	c0.033-0.066,0.066-0.13,0.102-0.192c-0.01,0.14-0.014,0.283-0.017,0.421c-0.013,0.605,0.025,1.278,0.312,1.835
	c0.033,0.062,0.122,0.081,0.15,0.013c0.204-0.498,0.281-1.095,0.396-1.63c0.021-0.098,0.047-0.196,0.071-0.295
	c0.277,0.825,0.646,1.635,0.943,2.419c0.125,0.326,0.626,0.22,0.509-0.115c-0.264-0.767-0.423-1.574-0.503-2.388
	c0.054-0.04,0.095-0.101,0.108-0.188c0.065-0.436,0.096-0.839-0.021-1.255c-0.003-0.268-0.022-0.535-0.046-0.804
	c1.828,1.601,4.439,1.898,6.425,0.418c1.604,0.754,3.603-0.611,2.298-2.238c-1.303-1.624-4.738-0.653-3.119,1.595
	c0.002,0.002,0.003,0.005,0.008,0.007c-1.608,1.01-3.582,0.928-5.226-0.664c1.75-0.246,3.046-1.302,4.196-2.499
	c1.193,1.013,3.112-0.059,2.097-1.501c-0.963-1.366-2.967-0.637-2.654,0.647c-1.02,1.098-2.158,2.127-3.71,2.375
	c2.114-3.144,4.417-6.042,7.181-8.651c-0.204,0.506-0.374,1.124-0.219,1.623c0.05,0.161,0.267,0.229,0.326,0.067
	c0.202-0.538,0.361-1.068,0.636-1.555c-0.021,0.868,0.109,1.761,0.384,2.594c0.104,0.314,0.612,0.323,0.569-0.012
	c-0.082-0.624-0.062-1.251,0.023-1.866c0.017-0.023,0.034-0.046,0.043-0.077c0.226-0.625,0.489-1.249,0.747-1.867
	c1.339,1.288,3.875,1.771,5.61,1.12c1.435,1.502,4.039,0.732,2.917-1.285c-0.448-0.809-1.178-1.232-1.867-1.318
	c0.444-0.23,0.662-0.725,0.3-1.438c-0.782-1.537-2.938-1.229-2.676,0.137c-0.977,0.432-2.057,0.752-3.185,0.871
	c4.489-3.097,9.016-5.227,14.286-6.601c1.157,1.822,3.858,1.685,3.085-0.556c-0.784-2.271-3.843-2.435-3.47-0.396
	c-5.427,1.219-10.172,3.733-14.658,6.952c0.382-1.53,1.424-2.724,2.286-4.008c1.042,0.526,2.369-0.108,1.775-1.494
	C36.074,9.91,33.447,10.5,34.25,12.32c0.027,0.063,0.062,0.118,0.097,0.176c-0.977,1.513-2.211,2.865-2.553,4.694
	c-0.393-0.927-0.596-1.925-0.642-2.938c-0.058-1.286,0.046-2.562,0.229-3.83c1.371,0.577,3.086-0.419,2.337-2.201
	c-0.884-2.104-4.562-1.676-3.55,0.933c0.079,0.202,0.188,0.376,0.303,0.535c-0.491,2.665-0.51,5.489,0.567,8.021
	c-0.148,0.053-0.301,0.109-0.489,0.105c-0.472-0.011-0.956-0.053-1.437-0.113c-0.827-0.105-1.674-0.293-2.502-0.298
	c-0.404-0.002-0.613,0.614-0.189,0.856c1.021,0.583,2.122,0.817,3.217,0.79c-0.276,0.163-0.55,0.33-0.83,0.488
	c-0.349,0.195-0.639,0.384-0.897,0.692c-0.079,0.097,0.041,0.283,0.162,0.259c0.351-0.067,0.724-0.103,1.082-0.166
	c-2.526,2.561-4.713,5.213-6.758,8.173c-0.092-0.743,0.002-1.562,0.078-2.2c0.116-0.97,0.365-1.923,0.725-2.815
	c1.125,0.387,2.44-0.604,1.636-1.93c-1.019-1.675-3.542-0.449-2.481,1.242c0.018,0.025,0.035,0.046,0.053,0.07
	c-0.494,1.171-0.816,2.435-0.913,3.736c-0.048,0.661-0.092,1.382,0.002,2.073c-1.138-2.033-1.531-4.44-0.995-6.716
	c1.313,0.009,2.547-1.309,1.629-2.808c-1.256-2.049-4.655-0.565-3.362,1.755c0.207,0.371,0.501,0.627,0.8,0.797
	c-0.615,2.74-0.139,5.705,1.441,8.044c-1.405,0.468-2.896,0.679-4.311,1.186c-0.428,0.153-0.232,0.858,0.172,0.916
	c0.981,0.139,1.952,0.013,2.886-0.246c-0.493,0.493-0.974,1.011-1.369,1.592c-0.107,0.159,0.055,0.353,0.22,0.269
	c0.533-0.272,1.007-0.6,1.472-0.954c-1.868,3.779-3.313,7.573-4.443,11.63c-0.265-0.834-0.152-1.913-0.09-2.647
	c0.05-0.578,0.129-1.158,0.188-1.742c0.973-0.193,1.71-1.329,0.82-2.333c-0.814-0.915-2.003-0.548-2.435,0.25
	c0.164-0.552,0.086-1.228-0.43-1.794c-1.663-1.829-4.528,0.619-2.944,2.572c0.226,0.279,0.516,0.458,0.791,0.569
	c0.369,2.46,1.361,4.86,3.058,6.706c-0.78,0.48-1.474,1.115-2.291,1.518c-0.938,0.462-1.912,0.819-2.625,1.677
	c-0.246,0.294,0.02,0.689,0.32,0.72c1.211,0.125,2.582-0.49,3.776-1.275c-0.07,0.1-0.138,0.203-0.209,0.297
	c-0.651,0.861-1.445,1.71-1.833,2.789c-0.049,0.133,0.095,0.243,0.195,0.17c0.768-0.563,1.356-1.381,1.964-2.119
	c0.244-0.295,0.551-0.6,0.832-0.922c-0.952,6.424-1.007,12.57-0.2,19.013c-1.116-1.214-2.054-2.638-2.547-4.331
	c-0.268-0.916-0.357-1.885-0.481-2.838c0.649-0.819,0.775-2.057-0.312-2.878c-1.324-1.002-2.789-0.023-3.073,1.272
	c-0.081-0.45-0.321-0.93-0.772-1.255c-2.094-1.511-4.084,1.925-2.285,3.435c0.398,0.334,0.879,0.43,1.288,0.383
	c1.438,3.526,4.034,7.823,8.121,8.595c-0.951,1.629-2.994,2.723-4.426,3.73c-0.371,0.261-0.096,0.893,0.329,0.826
	c1.486-0.227,3.244-1.189,4.38-2.547c-0.068,0.328-0.123,0.67-0.229,0.982c-0.382,1.119-1.124,2.19-1.256,3.401
	c-0.01,0.085,0.089,0.134,0.146,0.103c0.651-0.354,1.688-1.664,2.26-2.95c1.67,6.164,3.964,11.801,7.121,17.352
	c-0.056,0.045-0.113,0.09-0.172,0.139c-0.94,0.243-1.96,0.181-2.984-0.289c-2.82-1.29-4.721-3.6-6.565-6.031
	c1.352-1.116,1.64-3.782-0.376-4.63c-2.908-1.223-4.655,3.672-1.832,4.93c0.469,0.21,0.923,0.227,1.324,0.136
	c2.025,3.11,5.104,6.569,9.003,7.053c-0.592,0.407-1.23,0.693-2.017,0.596c-1.331-0.166-2.535-0.776-3.676-1.595
	c0.021-0.844-0.398-1.748-1.321-2.02c-2.406-0.702-3.214,3.29-1.116,4.143c0.944,0.385,1.804-0.23,2.186-1.039
	c1.227,0.884,2.593,1.59,3.915,1.585c1.639-0.005,2.513-0.859,3.58-1.715c0.019-0.003,0.035-0.009,0.054-0.015
	c-0.347,1.122-0.789,2.104-1.426,3.107c-0.545,0.857-1.035,1.695-1.18,2.787c-0.065,0.49,0.505,0.898,0.859,0.691
	c1.271-0.742,1.934-2.389,2.49-3.787c0.206-0.518,0.47-1.208,0.639-1.886c0.015,0.022,0.032,0.048,0.047,0.069
	c-0.077,0.578-0.089,1.175-0.144,1.78c-0.089,0.966-0.15,1.909-0.045,2.896c0.014,0.131,0.175,0.127,0.214,0.024
	c0.341-0.898,0.794-2.103,0.967-3.266c2.861,3.901,5.976,7.364,9.627,10.546c-0.104,0.162-0.208,0.329-0.315,0.498
	c-2.509,2.037-5.751,0.254-7.874-1.367c0.76-1.489,0.345-3.769-1.562-3.99c-2.936-0.34-3.757,4.812-0.71,5.271
	c0.662,0.101,1.229-0.122,1.652-0.484c1.39,1.194,3.396,2.444,5.25,2.685c0.682,0.087,1.353-0.023,1.994-0.256
	c-0.649,0.846-1.394,1.576-2.372,1.924c-1.645,0.588-3.448,0.648-5.112-0.157c0.453-1.237-0.062-3.026-1.516-3.122
	c-2.423-0.156-2.551,3.965-0.333,4.363c0.486,0.088,0.95-0.105,1.271-0.385c1.75,0.943,3.648,1.023,5.448,0.537
	c1.92-0.52,3.598-2.547,4.487-4.225c0.094-0.07,0.18-0.148,0.272-0.223c0.368,2.084,0.001,4.564-0.419,6.575
	c-0.11,0.529,0.552,1.177,0.931,0.684c1.278-1.669,1.536-3.784,1.274-5.815c0.174,0.434,0.354,0.867,0.448,1.3
	c0.211,0.97,0.422,2.083,1.01,2.894c0.104,0.141,0.27,0.035,0.292-0.11c0.12-0.764,0.126-2.276-0.111-3.593
	c4.708,2.971,9.509,5.182,14.826,6.835c-1.33,0.795-3.28,0.597-4.947,0.489c0.004-0.119,0.003-0.238-0.019-0.358
	c-0.004-0.026-0.007-0.039-0.011-0.064c-0.191-1.104-0.891-1.967-1.949-1.88c-0.914,0.075-1.886,1.071-1.71,2.201
	c0.005,0.025,0.007,0.04,0.01,0.065c0.177,1.124,0.945,2.052,2.023,1.947c0.521-0.049,1.028-0.414,1.342-0.917
	c1.868,0.209,4.476,0.275,6.09-0.892c-0.032,0.055-0.064,0.111-0.101,0.165c-2.284,3.321-6.498,5.066-10.485,4.023
	c0.185-1.603-0.737-3.42-2.443-3.118c-2.759,0.487-2.605,5.785,0.508,5.391c0.799-0.102,1.345-0.625,1.651-1.26
	c4.84,1.164,9.592-0.842,11.942-5.273c0.359,0.09,0.725,0.167,1.086,0.248c-0.229,0.958-0.364,1.99-0.69,2.907
	c-0.348,0.979-0.75,1.929-1.025,2.947c-0.108,0.402,0.202,1.03,0.634,0.786c1.434-0.812,1.975-2.949,2.365-4.6
	c0.1-0.414,0.148-0.799,0.204-1.174c0.179,0.541,0.475,1.068,0.628,1.587c0.23,0.779,0.382,1.619,0.942,2.187
	c0.109,0.109,0.271-0.05,0.244-0.196c-0.221-1.161-0.096-2.285-0.516-3.385c-0.069-0.184-0.138-0.373-0.211-0.553
	c4.649,0.706,9.235,1.019,13.882,0.833C73.632,116.998,73.539,115.956,73.028,115.977 M32.83,18.811
	c1.551-0.014,3.047-0.41,4.365-0.989c0.282,0.301,0.628,0.472,0.971,0.536c-0.606,0.25-0.967,0.85-0.647,1.669
	c-1.489,0.496-3.422,0.307-4.71-1.167C32.817,18.843,32.823,18.827,32.83,18.811 M13.374,68.528
	c-2.933-1.454-4.907-4.607-6.146-7.525c0.439-0.335,0.75-0.856,0.864-1.409c0.08,0.454,0.324,0.896,0.798,1.242
	c0.609,0.444,1.233,0.455,1.762,0.232c0.135,1.078,0.259,2.175,0.67,3.176c0.77,1.881,1.809,3.354,3.162,4.677
	C14.119,68.834,13.75,68.715,13.374,68.528 M14.559,43.866c-0.953-1.365-1.676-3.065-2.016-4.763
	c0.625-0.122,1.169-0.557,1.453-1.115c-0.098,0.403-0.013,0.86,0.366,1.279c0.133,0.147,0.277,0.25,0.425,0.331
	C14.634,40.952,14.333,42.542,14.559,43.866"/>
<path style="fill:#660D0D;" d="M229.322,115.977c-0.511-0.021-0.604,1.021-0.084,1.04c4.646,0.186,9.232-0.127,13.882-0.833
	c-0.073,0.18-0.141,0.369-0.211,0.553c-0.42,1.1-0.295,2.224-0.516,3.385c-0.027,0.146,0.136,0.306,0.244,0.196
	c0.561-0.567,0.712-1.407,0.942-2.187c0.153-0.519,0.449-1.046,0.628-1.587c0.057,0.375,0.104,0.76,0.204,1.174
	c0.391,1.65,0.932,3.788,2.365,4.6c0.432,0.244,0.742-0.384,0.634-0.786c-0.275-1.019-0.678-1.968-1.024-2.947
	c-0.327-0.917-0.462-1.949-0.691-2.907c0.361-0.081,0.727-0.158,1.086-0.248c2.351,4.432,7.103,6.438,11.942,5.273
	c0.307,0.635,0.854,1.158,1.651,1.26c3.113,0.395,3.268-4.903,0.508-5.391c-1.706-0.302-2.628,1.516-2.443,3.118
	c-3.987,1.043-8.201-0.702-10.485-4.023c-0.036-0.054-0.068-0.11-0.101-0.165c1.614,1.167,4.222,1.101,6.09,0.892
	c0.313,0.503,0.821,0.868,1.342,0.917c1.079,0.104,1.847-0.823,2.023-1.947c0.004-0.025,0.006-0.04,0.01-0.065
	c0.177-1.13-0.796-2.126-1.71-2.201c-1.059-0.087-1.758,0.775-1.949,1.88c-0.004,0.025-0.007,0.038-0.011,0.064
	c-0.021,0.12-0.022,0.239-0.019,0.358c-1.667,0.107-3.617,0.306-4.947-0.489c5.317-1.653,10.118-3.864,14.826-6.835
	c-0.237,1.316-0.231,2.829-0.111,3.593c0.021,0.146,0.188,0.251,0.292,0.11c0.588-0.811,0.799-1.924,1.01-2.894
	c0.095-0.433,0.274-0.866,0.448-1.3c-0.262,2.031-0.004,4.146,1.274,5.815c0.379,0.493,1.041-0.154,0.931-0.684
	c-0.42-2.011-0.787-4.491-0.419-6.575c0.093,0.074,0.179,0.152,0.272,0.223c0.889,1.678,2.567,3.705,4.488,4.225
	c1.799,0.486,3.697,0.406,5.447-0.537c0.321,0.279,0.785,0.473,1.271,0.385c2.218-0.398,2.09-4.52-0.333-4.363
	c-1.453,0.096-1.969,1.885-1.516,3.122c-1.663,0.806-3.468,0.745-5.112,0.157c-0.979-0.348-1.723-1.078-2.372-1.924
	c0.642,0.232,1.312,0.343,1.994,0.256c1.854-0.24,3.86-1.49,5.25-2.685c0.424,0.362,0.99,0.585,1.652,0.484
	c3.047-0.459,2.226-5.61-0.71-5.271c-1.907,0.222-2.322,2.501-1.562,3.99c-2.123,1.621-5.365,3.404-7.874,1.367
	c-0.106-0.169-0.212-0.336-0.315-0.498c3.651-3.182,6.768-6.645,9.627-10.546c0.173,1.163,0.627,2.367,0.967,3.266
	c0.039,0.103,0.2,0.106,0.214-0.024c0.105-0.986,0.045-1.93-0.045-2.896c-0.055-0.605-0.066-1.202-0.143-1.78
	c0.015-0.021,0.031-0.047,0.046-0.069c0.169,0.678,0.432,1.368,0.639,1.886c0.557,1.398,1.219,3.045,2.49,3.787
	c0.354,0.207,0.925-0.201,0.859-0.691c-0.145-1.092-0.635-1.93-1.18-2.787c-0.637-1.003-1.08-1.985-1.426-3.107
	c0.019,0.006,0.035,0.012,0.054,0.015c1.067,0.855,1.941,1.71,3.58,1.715c1.323,0.005,2.688-0.701,3.915-1.585
	c0.382,0.809,1.241,1.424,2.186,1.039c2.098-0.853,1.29-4.845-1.116-4.143c-0.923,0.271-1.342,1.176-1.321,2.02
	c-1.141,0.818-2.345,1.429-3.676,1.595c-0.786,0.098-1.425-0.188-2.017-0.596c3.899-0.483,6.979-3.942,9.003-7.053
	c0.401,0.091,0.855,0.074,1.324-0.136c2.823-1.258,1.076-6.152-1.832-4.93c-2.016,0.848-1.728,3.514-0.376,4.63
	c-1.845,2.432-3.745,4.741-6.565,6.031c-1.024,0.47-2.044,0.532-2.984,0.289c-0.059-0.049-0.116-0.094-0.172-0.139
	c3.157-5.551,5.451-11.188,7.121-17.352c0.571,1.286,1.608,2.597,2.26,2.95c0.057,0.031,0.155-0.018,0.146-0.103
	c-0.132-1.211-0.874-2.282-1.256-3.401c-0.106-0.312-0.161-0.654-0.229-0.982c1.136,1.357,2.894,2.32,4.379,2.547
	c0.426,0.066,0.701-0.565,0.33-0.826c-1.432-1.008-3.475-2.102-4.426-3.73c4.087-0.772,6.683-5.069,8.121-8.595
	c0.409,0.047,0.89-0.049,1.288-0.383c1.799-1.51-0.191-4.946-2.285-3.435c-0.451,0.326-0.691,0.805-0.772,1.255
	c-0.284-1.295-1.749-2.274-3.073-1.272c-1.087,0.822-0.961,2.06-0.312,2.878c-0.124,0.954-0.214,1.922-0.481,2.838
	c-0.493,1.693-1.431,3.117-2.547,4.331c0.807-6.443,0.752-12.589-0.199-19.013c0.28,0.323,0.587,0.627,0.831,0.922
	c0.607,0.738,1.196,1.555,1.964,2.119c0.101,0.073,0.244-0.037,0.195-0.17c-0.388-1.079-1.182-1.928-1.833-2.789
	c-0.071-0.095-0.139-0.198-0.209-0.297c1.194,0.785,2.565,1.4,3.776,1.275c0.301-0.03,0.566-0.425,0.32-0.72
	c-0.712-0.858-1.687-1.215-2.625-1.677c-0.817-0.402-1.511-1.037-2.291-1.518c1.696-1.846,2.688-4.246,3.058-6.706
	c0.275-0.111,0.565-0.291,0.791-0.569c1.584-1.953-1.281-4.401-2.944-2.572c-0.516,0.567-0.594,1.243-0.43,1.794
	c-0.432-0.798-1.62-1.165-2.435-0.25c-0.89,1.005-0.152,2.141,0.82,2.333c0.06,0.584,0.139,1.164,0.188,1.742
	c0.063,0.734,0.175,1.813-0.09,2.647c-1.13-4.057-2.575-7.851-4.443-11.63c0.466,0.354,0.938,0.682,1.472,0.954
	c0.165,0.083,0.327-0.11,0.22-0.269c-0.396-0.581-0.876-1.099-1.369-1.592c0.934,0.259,1.904,0.384,2.886,0.246
	c0.404-0.058,0.6-0.763,0.172-0.916c-1.414-0.507-2.905-0.717-4.311-1.186c1.58-2.339,2.057-5.304,1.441-8.044
	c0.3-0.17,0.593-0.427,0.8-0.797c1.293-2.32-2.106-3.804-3.362-1.755c-0.918,1.499,0.315,2.817,1.629,2.808
	c0.536,2.276,0.143,4.684-0.995,6.716c0.094-0.69,0.05-1.412,0.002-2.073c-0.097-1.302-0.418-2.565-0.913-3.736
	c0.018-0.024,0.035-0.044,0.053-0.07c1.061-1.69-1.463-2.917-2.481-1.242c-0.805,1.327,0.511,2.317,1.636,1.93
	c0.359,0.892,0.608,1.845,0.725,2.815c0.076,0.637,0.17,1.457,0.078,2.2c-2.045-2.96-4.231-5.612-6.758-8.173
	c0.358,0.063,0.731,0.099,1.082,0.166c0.123,0.024,0.242-0.162,0.162-0.259c-0.259-0.308-0.549-0.497-0.897-0.692
	c-0.28-0.158-0.554-0.325-0.83-0.488c1.095,0.027,2.195-0.207,3.217-0.79c0.425-0.242,0.215-0.859-0.189-0.856
	c-0.827,0.005-1.675,0.193-2.502,0.298c-0.48,0.06-0.965,0.102-1.437,0.113c-0.188,0.004-0.341-0.052-0.489-0.105
	c1.077-2.531,1.059-5.356,0.567-8.021c0.114-0.158,0.224-0.333,0.303-0.535c1.012-2.609-2.666-3.037-3.55-0.933
	c-0.749,1.781,0.966,2.778,2.337,2.201c0.184,1.269,0.286,2.544,0.229,3.83c-0.045,1.013-0.249,2.011-0.642,2.938
	c-0.342-1.829-1.576-3.181-2.553-4.694c0.034-0.058,0.069-0.113,0.097-0.176c0.803-1.821-1.824-2.411-2.597-0.608
	c-0.594,1.386,0.733,2.02,1.775,1.494c0.862,1.285,1.904,2.479,2.286,4.008c-4.486-3.219-9.231-5.733-14.658-6.952
	c0.373-2.039-2.686-1.875-3.469,0.396c-0.774,2.24,1.928,2.378,3.084,0.556c5.271,1.374,9.797,3.504,14.287,6.601
	c-1.129-0.118-2.209-0.439-3.186-0.871c0.264-1.365-1.894-1.673-2.675-0.137c-0.362,0.713-0.146,1.208,0.299,1.438
	c-0.689,0.086-1.419,0.51-1.867,1.318c-1.122,2.017,1.482,2.787,2.917,1.285c1.735,0.651,4.271,0.168,5.61-1.12
	c0.257,0.618,0.522,1.241,0.747,1.867c0.009,0.03,0.026,0.053,0.043,0.077c0.086,0.615,0.105,1.242,0.023,1.866
	c-0.043,0.335,0.466,0.327,0.57,0.012c0.273-0.833,0.404-1.726,0.383-2.594c0.275,0.487,0.434,1.018,0.636,1.555
	c0.06,0.161,0.276,0.093,0.326-0.067c0.155-0.499-0.015-1.116-0.219-1.623c2.764,2.609,5.066,5.507,7.181,8.651
	c-1.552-0.248-2.69-1.277-3.711-2.375c0.313-1.284-1.69-2.013-2.652-0.647c-1.017,1.443,0.902,2.515,2.096,1.501
	c1.15,1.196,2.446,2.253,4.196,2.499c-1.644,1.592-3.617,1.674-5.226,0.664c0.005-0.002,0.006-0.005,0.008-0.007
	c1.619-2.248-1.816-3.218-3.119-1.595c-1.305,1.627,0.693,2.993,2.298,2.238c1.985,1.479,4.597,1.183,6.425-0.418
	c-0.023,0.269-0.043,0.537-0.046,0.804c-0.116,0.417-0.086,0.82-0.021,1.255c0.014,0.088,0.055,0.148,0.108,0.188
	c-0.08,0.814-0.239,1.622-0.503,2.388c-0.117,0.335,0.384,0.441,0.509,0.115c0.298-0.784,0.666-1.594,0.943-2.419
	c0.024,0.099,0.051,0.197,0.071,0.295c0.115,0.535,0.192,1.132,0.396,1.63c0.028,0.067,0.117,0.049,0.15-0.013
	c0.286-0.557,0.324-1.23,0.312-1.835c-0.003-0.138-0.007-0.281-0.017-0.421c0.035,0.062,0.068,0.126,0.102,0.192
	c1.808,3.704,3.127,7.532,4.162,11.561c-0.003,0.003-0.005,0.006-0.008,0.01c-0.062,0.038-0.107,0.087-0.143,0.14
	c-1.586-0.627-2.756-2.182-3.718-3.659c0.856-1.295-1.13-2.703-2.361-1.457c-1.166,1.18,0.316,2.604,1.608,2.081
	c0.896,1.513,2.402,3.238,4.051,3.957c-1.627,1.271-4.404,0.778-5.597-0.865c1.651-1.652-1.096-3.817-2.865-2.201
	c-1.605,1.466,0.308,3.345,2.053,2.729c1.544,1.837,3.997,2.859,6.283,1.711c0.168-0.084,0.319-0.195,0.479-0.29
	c-0.279,0.814-0.71,1.73-0.773,1.885c-0.237,0.574-0.533,1.351-0.937,1.962c-0.249,0.272-0.495,0.536-0.732,0.8
	c-0.322,0.355,0.124,0.931,0.518,0.637c0.028-0.022,0.055-0.051,0.083-0.073c0,0,0,0,0,0.001c0.006-0.006,0.009-0.009,0.016-0.015
	c0.276-0.22,0.527-0.494,0.751-0.813c0.275-0.297,0.54-0.604,0.8-0.917c-0.191,0.521-0.294,0.922-0.229,1.486
	c0.018,0.156,0.181,0.648,0.436,0.491c0.199-0.124,0.237-0.317,0.332-0.527c0.189-0.424,0.431-0.857,0.645-1.276
	c0.079-0.156,0.164-0.317,0.242-0.479c0.69,6.123,0.59,11.989-0.284,18.09c-1.519-2.032-2.472-4.492-2.907-6.979
	c0.064-0.03,0.13-0.053,0.186-0.091c2.044-1.408-0.368-4.153-2.282-3.005c-1.673,1.005-0.472,3.241,1.167,3.311
	c0.448,2.594,1.446,5.13,2.988,7.27c-3.004-0.537-5.049-3.742-5.877-6.409c2.144-1.513-0.423-3.906-2.257-2.908
	c-1.748,0.952-0.406,3.238,1.33,3.173c0.903,3.029,3.221,6.443,6.575,7.072c-0.314,0.229-0.596,0.525-0.909,0.801
	c-1.118,0.979-2.526,1.297-3.922,1.375c-0.633,0.033-0.581,0.98,0.041,0.994c1.498,0.033,3.041-0.025,4.37-0.894
	c-0.13,0.188-0.274,0.366-0.467,0.537c-0.62,0.552-1.489,0.725-1.992,1.384c-0.063,0.084-0.001,0.215,0.104,0.201
	c0.993-0.137,1.856-0.653,2.65-1.309c0.123-0.102,0.26-0.23,0.391-0.375c-0.04,0.186-0.08,0.378-0.127,0.559
	c-1.514,5.976-3.826,11.52-6.903,16.939c-0.535-3.512-0.312-7.207,0.291-10.691c0.234,0.012,0.505-0.006,0.742-0.106
	c2.234-0.942,0.419-4.156-1.639-3.491c-1.592,0.514-1.205,2.537-0.004,3.301c-0.639,3.584-0.839,7.361-0.331,10.98
	c-0.18-0.143-0.358-0.292-0.529-0.46c-1.745-1.736-2.493-4.192-2.49-6.618c0.092-0.014,0.184-0.016,0.271-0.043
	c2.896-0.93,0.474-4.943-1.87-4.354c-2.401,0.604-1.115,3.772,0.721,4.365c0.131,2.717,0.924,5.562,2.803,7.604
	c-0.334-0.015-0.666-0.039-0.993-0.093c-0.63-0.102-1.535-0.129-2.188-0.477c-0.236-0.198-0.463-0.409-0.674-0.633
	c-0.473-0.496-1.359,0.086-0.952,0.702c0.031,0.048,0.074,0.078,0.106,0.124c-0.006,0.003-0.012,0.006-0.017,0.011
	c0.047,0.052,0.102,0.093,0.147,0.144c0.164,0.199,0.342,0.375,0.536,0.523c0.734,0.652,1.561,1.164,2.498,1.439
	c-0.06,0.02-0.122,0.049-0.181,0.066c-0.776,0.236-1.716,0.214-2.328,0.822c-0.079,0.079-0.046,0.205,0.036,0.269
	c0.727,0.562,2.596,0.628,3.806,0.024c-2.875,3.953-6.018,7.459-9.695,10.686c0.004-1.574,0.153-3.089,0.385-4.592
	c0.142-0.912,0.198-2.121,0.481-3.123c0.321,0.21,0.742,0.356,1.154,0.297c2.392-0.348,1.156-3.892-0.849-3.82
	c-1.406,0.051-1.644,1.66-1.006,2.762c-0.258,0.764-0.363,1.631-0.495,2.414c-0.32,1.891-0.556,3.881-0.581,5.807
	c-1.905-2.031-3.368-4.738-3.142-7.601c0.162,0.032,0.341,0.063,0.51,0.054c3.026-0.17,1.194-4.552-1.037-4.63
	c-2.198-0.079-2.021,3.04-0.316,4.206c-0.276,3.207,1.285,6.431,3.432,8.75c-2.45-0.307-4.24-2.348-5.521-4.275
	c-0.302-0.453-0.78,0.024-0.639,0.446c0.571,1.695,2.073,3.734,3.774,4.494c-0.067,0.018-0.14,0.038-0.206,0.056
	c-0.774,0.213-1.61,0.085-2.403,0.131c-0.121,0.008-0.191,0.201-0.062,0.277c1.014,0.593,1.831,0.791,2.954,0.688
	c0.142-0.012,0.363-0.014,0.6-0.026c-0.122,0.092-0.242,0.188-0.369,0.273c-4.897,3.286-10.007,5.605-15.699,7.289
	c0.246-1.94,0.979-4.07,1.905-5.794c0.127,0.067,0.269,0.139,0.405,0.163c2.434,0.431,1.632-3.378-0.005-3.886
	c-1.588-0.492-2.031,1.756-1.113,3.069c-1.07,1.989-1.594,4.054-2.057,6.241c-0.01,0.012-0.017,0.023-0.026,0.034
	c-1.345-3.23-1.163-7.187,0.23-10.382c0.163,0.094,0.342,0.186,0.523,0.227c2.984,0.695,1.553-4.058-0.26-4.662
	c-1.994-0.664-2.33,2.229-0.994,3.819c-1.588,3.564-1.751,7.995-0.197,11.588c-0.42,0.098-0.844,0.189-1.263,0.279
	c-0.122-0.938-0.954-1.858-1.32-2.669c-0.677-1.498-0.919-3.43-0.717-4.926c0.056-0.412-0.458-0.708-0.553-0.295
	c-0.372,1.624-0.523,3.348-0.247,5.193c0.071,0.477,0.238,1.062,0.486,1.604c-0.866-0.192-1.688-0.475-2.423-1.227
	c-0.084-0.086-0.173,0.028-0.161,0.129c0.115,1.026,0.573,1.812,1.396,2.273c0.213,0.119,0.558,0.274,0.93,0.394
	C238.059,115.894,233.709,116.162,229.322,115.977 M269.52,18.811c0.007,0.017,0.013,0.033,0.021,0.049
	c-1.288,1.474-3.221,1.663-4.71,1.167c0.319-0.819-0.041-1.419-0.647-1.669c0.343-0.064,0.688-0.235,0.971-0.536
	C266.473,18.401,267.969,18.797,269.52,18.811 M288.976,68.528c-0.376,0.188-0.745,0.307-1.11,0.393
	c1.354-1.322,2.393-2.796,3.162-4.677c0.411-1.001,0.535-2.098,0.67-3.176c0.528,0.223,1.152,0.212,1.762-0.232
	c0.474-0.346,0.718-0.788,0.799-1.242c0.113,0.553,0.424,1.074,0.863,1.409C293.883,63.92,291.909,67.074,288.976,68.528
	 M287.791,43.866c0.227-1.324-0.075-2.914-0.229-4.269c0.147-0.081,0.292-0.184,0.425-0.331c0.379-0.418,0.465-0.875,0.366-1.279
	c0.284,0.558,0.828,0.993,1.453,1.115C289.467,40.801,288.744,42.501,287.791,43.866"/>
</svg>
